<?xml version="1.0" encoding="utf-8"?>
<!-- Generator: Adobe Illustrator 21.0.0, SVG Export Plug-In . SVG Version: 6.00 Build 0)  -->
<svg version="1.1" id="Layer_1" xmlns="http://www.w3.org/2000/svg" xmlns:xlink="http://www.w3.org/1999/xlink" x="0px" y="0px"
	 viewBox="0 0 422 62.1" style="enable-background:new 0 0 422 62.1;" xml:space="preserve">
<style type="text/css">
	.st0{fill:#FFFFFF;}
</style>
<title>resix_logo_svg</title>
<polyline class="st0" points="85.4,53.5 85.4,42.8 86.6,41.8 109.2,41.8 109.2,35.1 73.4,35.1 73.4,61 126.2,61 126.2,54.4 
	86.8,54.4 "/>
<rect x="73.4" y="22.1" class="st0" width="53.2" height="7.3"/>
<path class="st0" d="M190.5,37.3h-31.1l-0.9-1.1v-6.7l0.9-0.8h42l0.6-1.4c-1.4-3.6-5.2-5.5-12-5.5h-29.3c-9.7,0-12.7,1.8-12.7,9.3
	v4.4c0,7.3,3,9.3,12.7,9.3h31.1l0.9,0.9v7l-0.8,1.1h-44.9c0,0-1.1,0.6-1.1,0.8c0.8,5.2,4.3,6.5,12.6,6.5h31.9
	c9.7,0,12.9-1.8,12.9-9.3v-5.3C203.4,39.3,200.2,37.3,190.5,37.3"/>
<path class="st0" d="M278.1,22.7h-17.6l-0.9,1.8L279,38.8c3.6-2.1,7.7-4.3,12-6.4"/>
<path class="st0" d="M293.9,49.4L311,61.9h17.6l0.8-1.7l-25.5-18.7C300.6,44.1,297.1,46.7,293.9,49.4"/>
<path class="st0" d="M275.5,61.9h-15.9l-1.4-2.1C269,49.3,317.3,4.7,422,0C422,0,334.2,3,275.5,61.9"/>
<path class="st0" d="M53.2,61.2c-8.6,2-15.5,0.7-20.9-5.4c-2.3-2.6-5.5-4.4-8-6.8c-3.1-2.8-7.5-3.5-11.3-2c-3.7,1.1-1.2,4.5-1.8,6.9
	c-0.2,1-0.2,2,0,2.9c0.5,3.5-0.7,5.2-5.4,5.2s-5.8-1.3-5.7-5.2c0.2-10.1,0.2-20.2,0-30.3c0-4.3,1.8-5.7,6.6-5.6
	c10,0.2,20,0.2,30.1,0c8.8-0.2,14.4,2.3,14.2,11c-0.2,7.9,0,15.7-14,14.2C40.5,53.3,48.5,55.1,53.2,61.2z M25.1,28.4h-5.5
	c-4,0.2-8.7-1.6-8.8,5.2s3.9,6.4,9,6.2c4.4-0.2,9,0,13.3,0s7.1-0.8,7.2-5.2c0.1-4.5-2.4-6.3-7.4-6.1C30.3,28.5,27.7,28.5,25.1,28.4
	L25.1,28.4z"/>
<path class="st0" d="M223.6,41c0-5,0.2-9.9,0-14.9c-0.2-4.4,2.2-4.5,5.5-4.7c3.8-0.2,4.3,1.7,4.3,4.8c-0.1,10.3-0.1,20.5,0,30.8
	c0,3.2-0.6,4.9-4.3,4.7s-5.7-0.4-5.5-4.8C223.9,51.5,223.6,46.2,223.6,41z"/>
<line class="st0" x1="11.1" y1="53.9" x2="11.1" y2="56.8"/>
<line class="st0" x1="11.2" y1="53.8" x2="11.1" y2="56.5"/>
<path class="st0" d="M10.9,55.1c0.1,0.1-0.1,0.3,0.1,0.2c0.1-0.1,0.1-0.2,0.1-0.3c0-0.3,0.1-0.5,0.1-0.8l-1-0.1c0,0.7-0.1,1.3-0.2,2
	c-0.2,0.6,0.8,0.9,1,0.3c0.2-0.7,0.2-1.5,0.2-2.3c0-0.6-0.9-0.7-1-0.1c0,0.2,0,0.5-0.1,0.7c0,0.1-0.1,0.3-0.2,0.4
	c-0.1,0.4,0,0.8,0.4,0.9C10.9,56.2,11.4,55.4,10.9,55.1L10.9,55.1z"/>
</svg>
