<?xml version="1.0" encoding="utf-8"?>
<!-- Generator: Adobe Illustrator 16.0.0, SVG Export Plug-In . SVG Version: 6.00 Build 0)  -->
<!DOCTYPE svg PUBLIC "-//W3C//DTD SVG 1.1//EN" "http://www.w3.org/Graphics/SVG/1.1/DTD/svg11.dtd">
<svg version="1.1" id="Layer_1" xmlns="http://www.w3.org/2000/svg" xmlns:xlink="http://www.w3.org/1999/xlink" x="0px" y="0px"
	 width="85px" height="84px" viewBox="1.5 2 85 84" enable-background="new 1.5 2 85 84" xml:space="preserve">
<path fill="#032D6F" d="M86.498,19.057c0,16.709,0.001,33.417,0.002,50.126c-0.129,0.27-0.324,0.524-0.374,0.807
	c-0.526,2.986-1.33,5.861-3.058,8.414c-2.207,3.264-5.211,5.486-8.818,6.996c-2.391,1.002-4.922,1.064-7.408,1.065
	c-16.154,0.007-32.31-0.11-48.465-0.126c-3.24-0.002-6.144-1.057-8.705-2.79c-5.446-3.685-8.284-8.989-8.321-15.56
	C1.262,52.191,1.313,36.392,1.329,20.592c0.004-3.435,0.733-6.768,2.53-9.679c3.403-5.514,8.274-8.924,14.949-8.953
	c16.679-0.073,33.359-0.041,50.037,0.007c1.397,0.004,2.81,0.385,4.188,0.691c3.507,0.777,6.313,2.75,8.634,5.397
	c2.065,2.356,3.497,5.061,4,8.217C85.816,17.221,86.214,18.13,86.498,19.057z M6.116,44.162C6.116,53,6.1,61.839,6.143,70.678
	c0.004,0.815,0.34,1.645,0.602,2.439c0.206,0.625,0.51,1.222,0.813,1.809c0.513,0.991,0.936,2.066,1.631,2.914
	c0.542,0.662,1.531,0.938,2.16,1.553c1.39,1.354,2.96,2.143,4.93,2.063c0.223-0.01,0.451,0.115,0.677,0.182
	c0.625,0.176,1.249,0.504,1.874,0.506c16.397,0.027,32.793,0.026,49.189,0.012c1.047,0,2.197,0.459,3.082-0.612
	c0.156-0.19,0.686-0.077,1.041-0.099c0.398-0.021,0.881,0.104,1.18-0.075c1.533-0.919,3.027-1.902,4.511-2.899
	c0.237-0.162,0.358-0.506,0.519-0.773c0.196-0.332,0.299-0.771,0.577-0.992c1.761-1.387,1.777-3.59,2.482-5.434
	c0.446-1.17,0.295-2.594,0.297-3.902c0.017-14.957-0.026-29.915,0.039-44.872c0.015-3.347-0.326-6.577-1.757-9.611
	c-0.475-1.007-1.141-1.979-1.916-2.775c-0.861-0.886-1.942-1.562-2.941-2.31c-0.181-0.136-0.419-0.224-0.645-0.266
	c-1.406-0.265-2.817-0.508-4.227-0.766c-0.111-0.021-0.211-0.112-0.324-0.144c-0.662-0.188-1.324-0.522-1.988-0.523
	c-15.838-0.03-31.674-0.028-47.51-0.014c-1.008,0.001-2.131-0.44-2.952,0.616c-0.102,0.131-0.463,0.121-0.69,0.086
	c-3.004-0.456-5.086,1.479-7.037,3.133c-1.337,1.133-1.924,3.129-2.921,4.692c-0.898,1.407-0.72,2.946-0.721,4.473
	C6.113,27.445,6.115,35.804,6.116,44.162z"/>
<path fill="#153D8D" d="M6.116,44.162c0-8.358-0.002-16.717,0.001-25.075c0.001-1.527-0.178-3.065,0.721-4.473
	c0.997-1.563,1.584-3.559,2.921-4.692c1.951-1.655,4.033-3.589,7.037-3.133c0.228,0.034,0.588,0.045,0.69-0.086
	c0.821-1.056,1.944-0.615,2.952-0.616C36.275,6.072,52.111,6.07,67.949,6.1c0.664,0.001,1.326,0.335,1.988,0.521
	c0.112,0.031,0.211,0.123,0.323,0.144c1.408,0.258,2.819,0.501,4.228,0.766c0.225,0.042,0.463,0.13,0.644,0.266
	c0.999,0.749,2.08,1.424,2.942,2.31c0.775,0.796,1.441,1.768,1.916,2.775c1.43,3.035,1.771,6.265,1.756,9.611
	c-0.066,14.957-0.023,29.915-0.039,44.872c-0.002,1.31,0.148,2.732-0.297,3.902c-0.705,1.844-0.723,4.047-2.482,5.434
	c-0.279,0.221-0.381,0.66-0.578,0.992c-0.158,0.269-0.279,0.611-0.518,0.772c-1.482,0.998-2.977,1.981-4.51,2.9
	c-0.301,0.181-0.781,0.055-1.18,0.075c-0.357,0.021-0.886-0.092-1.041,0.099c-0.886,1.071-2.035,0.612-3.082,0.612
	c-16.396,0.016-32.793,0.017-49.19-0.012c-0.625-0.002-1.249-0.33-1.874-0.507c-0.226-0.063-0.454-0.188-0.677-0.181
	c-1.97,0.08-3.54-0.707-4.93-2.063c-0.629-0.613-1.618-0.891-2.16-1.553c-0.695-0.848-1.118-1.923-1.631-2.914
	c-0.303-0.587-0.608-1.184-0.813-1.809c-0.262-0.797-0.598-1.625-0.602-2.44C6.101,61.839,6.116,53,6.116,44.162z M15.479,62.079
	c1.373,0.862,2.567,1.593,3.742,2.354c2.379,1.543,4.75,3.1,7.119,4.656c0.623,0.409,1.213,0.872,1.847,1.264
	c1.692,1.043,3.406,2.051,5.099,3.094c1.139,0.699,2.265,1.421,3.382,2.156c1.222,0.808,2.419,1.649,3.639,2.461
	c0.895,0.594,1.677,1.315,2.932,1.26c1.076-0.049,1.75-0.418,2.621-1.081c2.023-1.542,4.332-2.71,6.531-4.019
	c1.492-0.89,3.021-1.719,4.484-2.652c1.285-0.819,2.479-1.784,3.756-2.618c1.615-1.058,3.266-2.063,4.92-3.06
	c1.58-0.951,3.191-1.852,4.778-2.791c0.716-0.424,1.101-0.963,1.097-1.918c-0.043-11.358-0.027-22.717-0.029-34.078
	c0-0.392-0.033-0.784-0.049-1.147c-0.475-0.171-0.921-0.247-1.27-0.472c-3.178-2.058-6.344-4.136-9.5-6.225
	c-0.594-0.393-1.102-0.921-1.709-1.288c-2.493-1.508-5.016-2.968-7.514-4.468c-0.713-0.427-1.36-0.96-2.07-1.391
	c-1.164-0.706-2.436-1.26-3.518-2.07c-1.994-1.493-3.146-1.519-5,0.134c-0.229,0.204-0.532,0.326-0.803,0.484
	c-1.466,0.857-2.947,1.688-4.395,2.577c-1.522,0.934-3.01,1.925-4.518,2.882c-0.092,0.059-0.251,0.007-0.35,0.061
	c-0.748,0.415-1.51,0.811-2.228,1.274c-2.306,1.492-4.599,3.004-6.888,4.521c-1.299,0.861-2.581,1.749-3.873,2.62
	c-0.227,0.152-0.45,0.348-0.704,0.414c-1.124,0.296-1.556,0.955-1.552,2.153c0.036,11.279,0.021,22.558,0.021,33.837
	C15.479,61.438,15.479,61.869,15.479,62.079z"/>
<path fill="#00296C" d="M15.479,62.079c0-0.21,0-0.642,0-1.073c0-11.279,0.015-22.558-0.021-33.837
	c-0.004-1.198,0.428-1.857,1.552-2.153c0.253-0.066,0.477-0.262,0.704-0.414c1.292-0.871,2.574-1.759,3.873-2.62
	c2.29-1.517,4.583-3.03,6.888-4.521c0.717-0.464,1.479-0.859,2.228-1.274c0.098-0.054,0.257-0.002,0.35-0.061
	c1.508-0.958,2.996-1.948,4.518-2.882c1.448-0.889,2.929-1.72,4.395-2.577c0.271-0.158,0.574-0.28,0.803-0.484
	c1.855-1.652,3.006-1.627,5-0.134c1.082,0.811,2.354,1.365,3.518,2.07c0.71,0.43,1.357,0.963,2.07,1.391
	c2.498,1.5,5.021,2.96,7.514,4.468c0.607,0.367,1.115,0.895,1.709,1.288c3.156,2.089,6.322,4.167,9.5,6.225
	c0.349,0.225,0.795,0.3,1.27,0.472c0.016,0.363,0.049,0.755,0.049,1.147c0.002,11.359-0.014,22.718,0.029,34.078
	c0.004,0.955-0.381,1.494-1.097,1.918c-1.587,0.939-3.198,1.84-4.778,2.791c-1.654,0.994-3.305,2.002-4.92,3.06
	c-1.277,0.834-2.471,1.799-3.756,2.619c-1.463,0.934-2.992,1.763-4.484,2.651c-2.199,1.309-4.508,2.477-6.531,4.019
	c-0.871,0.663-1.545,1.032-2.621,1.081c-1.255,0.057-2.037-0.666-2.932-1.26c-1.22-0.812-2.417-1.653-3.639-2.461
	c-1.117-0.735-2.243-1.457-3.382-2.156c-1.693-1.043-3.407-2.051-5.099-3.094c-0.634-0.392-1.224-0.854-1.847-1.264
	c-2.37-1.558-4.74-3.113-7.119-4.656C18.046,63.672,16.852,62.941,15.479,62.079z M24.623,29.653
	c-0.161,0.175-0.289,0.427-0.488,0.512c-1.331,0.562-1.755,1.588-1.662,2.958c0.057,0.836-0.045,1.684,0.031,2.517
	c0.047,0.521,0.141,1.182,0.478,1.504c0.999,0.958,2.067,1.875,3.221,2.636c2.465,1.627,4.999,3.153,7.51,4.709
	c2.647,1.64,5.315,3.246,7.947,4.91c1.238,0.783,2.01,0.799,3.2,0.019c0.896-0.589,1.859-1.073,3.016-1.729
	c0,2.883,0.007,5.506-0.016,8.127c-0.002,0.203-0.16,0.474-0.33,0.59c-1.166,0.811-2.33,1.627-3.553,2.346
	c-0.3,0.175-0.894,0.132-1.208-0.053c-2.558-1.502-5.106-3.02-7.608-4.61c-3.59-2.282-7.127-4.647-10.726-6.915
	c-0.29-0.184-1.108-0.033-1.292,0.23c-0.364,0.522-0.606,1.229-0.63,1.871c-0.076,2.035-0.078,4.08,0.003,6.117
	c0.022,0.566,0.308,1.234,0.693,1.653c0.628,0.685,1.438,1.201,2.172,1.79c-0.155,0.074-0.31,0.148-0.567,0.271
	c1.307,0.834,2.498,1.578,3.673,2.348c0.398,0.261,0.755,0.568,0.916-0.191c2.262,1.416,4.544,2.801,6.777,4.262
	c0.955,0.623,1.753,1.492,2.721,2.09c1.211,0.746,2.519,1.34,3.797,1.977c0.267,0.133,0.644,0.311,0.864,0.219
	c0.682-0.285,1.334-0.658,1.955-1.059c1.393-0.898,2.737-1.872,4.146-2.746c2.463-1.527,4.956-3.007,7.438-4.501
	c2.027-1.22,4.068-2.414,6.074-3.669c0.268-0.168,0.496-0.621,0.505-0.947c0.05-1.796,0.073-3.596-0.009-5.388
	c-0.018-0.414-0.389-0.946-0.752-1.188c-1.693-1.117-3.422-2.186-5.182-3.195c-0.688-0.396-1.49-0.596-2.24-0.883l0.037-0.051
	l-0.047,0.039c-0.183-0.268-0.306-0.627-0.556-0.785c-1.196-0.756-2.438-1.438-3.645-2.185c-2.203-1.364-4.328-2.873-6.621-4.061
	c-0.695-0.359-1.847,0.083-2.768,0.265c-0.978,0.193-1.531,1.586-2.889,1.051c0-1.581,0.055-3.136-0.014-4.686
	c-0.083-1.876-0.164-3.697,2.07-4.487c0.093-0.033,0.129-0.202,0.217-0.278c1.455-1.269,1.971-1.355,3.629-0.34
	c1.754,1.075,3.432,2.275,5.184,3.354c1.885,1.16,3.846,2.195,5.719,3.373c2.195,1.379,4.317,2.871,6.496,4.276
	c0.939,0.604,1.396,0.349,1.406-0.779c0.023-2.997,0.025-5.996-0.021-8.992c-0.004-0.367-0.256-0.863-0.555-1.071
	c-1.748-1.219-3.537-2.377-5.322-3.542c-2.229-1.454-4.457-2.909-6.701-4.336c-1.941-1.235-3.877-2.483-5.875-3.62
	c-0.688-0.39-1.658-0.811-2.314-0.611c-1.473,0.449-2.892,1.175-4.219,1.976c-2.263,1.367-4.44,2.877-6.653,4.327
	c-0.461-0.394-0.831-0.448-0.999,0.265c-0.059,0.059-0.119,0.117-0.178,0.176c-0.422,0.063-0.918,0.006-1.255,0.209
	c-1.634,0.986-3.236,2.026-4.816,3.096C24.637,28.932,24.68,29.366,24.623,29.653z"/>
<path fill="#426C93" d="M55.498,46.23c0.75,0.289,1.553,0.488,2.24,0.883c1.76,1.012,3.488,2.08,5.182,3.197
	c0.363,0.24,0.734,0.773,0.752,1.188c0.082,1.792,0.059,3.592,0.01,5.387c-0.01,0.327-0.238,0.78-0.506,0.948
	c-2.006,1.255-4.047,2.448-6.074,3.669c-2.482,1.494-4.977,2.975-7.438,4.501c-1.407,0.874-2.752,1.849-4.146,2.746
	c-0.621,0.399-1.273,0.772-1.955,1.058c-0.221,0.094-0.598-0.084-0.864-0.218c-1.278-0.637-2.586-1.229-3.797-1.978
	c-0.968-0.598-1.767-1.465-2.721-2.09c-2.233-1.459-4.515-2.846-6.777-4.26c-1.341-0.811-2.682-1.619-4.022-2.429
	c-0.734-0.589-1.544-1.106-2.172-1.79c-0.385-0.419-0.67-1.087-0.693-1.654c-0.082-2.037-0.08-4.08-0.003-6.117
	c0.024-0.642,0.267-1.348,0.63-1.871c0.184-0.264,1.001-0.412,1.292-0.229c3.599,2.269,7.136,4.634,10.726,6.915
	c2.502,1.592,5.051,3.109,7.608,4.609c0.315,0.186,0.909,0.229,1.208,0.054c1.223-0.718,2.387-1.535,3.553-2.345
	c0.17-0.117,0.328-0.389,0.33-0.59c0.021-2.623,0.016-5.246,0.016-8.127c-1.155,0.656-2.12,1.141-3.016,1.729
	c-1.189,0.779-1.961,0.766-3.199-0.02c-2.632-1.664-5.3-3.27-7.947-4.909c-2.512-1.557-5.045-3.083-7.51-4.709
	c-1.154-0.762-2.222-1.678-3.221-2.636c-0.337-0.322-0.43-0.984-0.478-1.504c-0.076-0.833,0.026-1.681-0.031-2.517
	c-0.094-1.37,0.331-2.396,1.662-2.958c0.199-0.084,0.327-0.337,0.487-0.512c1.449-0.846,2.922-1.655,4.337-2.555
	c0.696-0.442,1.285-1.054,1.921-1.589c0.06-0.059,0.119-0.117,0.179-0.176c0.333-0.088,0.666-0.176,0.998-0.264
	c2.213-1.45,4.39-2.96,6.653-4.327c1.327-0.801,2.746-1.527,4.219-1.976c0.656-0.2,1.628,0.221,2.314,0.611
	c1.997,1.137,3.934,2.385,5.875,3.62c2.243,1.428,4.473,2.882,6.7,4.336c1.785,1.165,3.576,2.323,5.324,3.542
	c0.297,0.208,0.549,0.704,0.555,1.071c0.046,2.997,0.043,5.995,0.021,8.992c-0.01,1.127-0.467,1.384-1.405,0.779
	c-2.18-1.405-4.302-2.897-6.496-4.276c-1.873-1.177-3.834-2.212-5.719-3.373c-1.753-1.079-3.431-2.279-5.185-3.354
	c-1.658-1.016-2.174-0.929-3.629,0.34c-0.088,0.077-0.124,0.246-0.217,0.278c-2.234,0.791-2.153,2.611-2.07,4.487
	c0.068,1.55,0.014,3.105,0.014,4.686c1.357,0.535,1.911-0.858,2.889-1.051c0.921-0.182,2.073-0.624,2.768-0.265
	c2.293,1.188,4.418,2.696,6.621,4.061c1.205,0.745,2.447,1.429,3.645,2.185c0.25,0.158,0.373,0.519,0.555,0.785
	c-1.439-0.822-2.899-1.615-4.316-2.477c-2.234-1.357-4.406-2.821-6.688-4.097c-0.504-0.282-1.414-0.134-2.01,0.116
	c-0.864,0.363-1.605,1.012-2.415,1.514c-1.092,0.678-1.479,0.462-1.485-0.852c-0.014-2.359-0.036-4.719,0.034-7.076
	c0.014-0.478,0.313-1.069,0.674-1.39c0.795-0.705,1.742-1.234,2.574-1.9c1.025-0.82,1.953-0.88,3.041-0.14
	c1.049,0.714,2.109,1.411,3.185,2.085c2.817,1.771,5.647,3.518,8.467,5.287c2.17,1.362,4.328,2.744,6.599,4.186
	c0.063-0.333,0.151-0.583,0.153-0.833c0.011-2.759,0.05-5.519-0.026-8.275c-0.016-0.499-0.412-1.12-0.821-1.445
	c-0.866-0.688-1.857-1.217-2.798-1.812c-4.488-2.846-8.981-5.685-13.463-8.542c-1.308-0.833-2.694-1.734-4.213-0.876
	c-2.723,1.538-5.332,3.276-7.99,4.929c-2.381,1.481-4.702,3.071-7.158,4.413c-3.389,1.853-3.432,1.773-3.421,5.63
	c0.001,0.56-0.104,1.138,0.006,1.673c0.105,0.506,0.299,1.152,0.678,1.418c1.908,1.34,3.87,2.609,5.85,3.843
	c3.73,2.324,7.468,4.636,11.243,6.888c0.856,0.511,1.644,1.595,2.871,0.908c0.963-0.539,1.85-1.213,2.801-1.777
	c0.309-0.184,0.799-0.377,1.047-0.252c0.244,0.125,0.397,0.646,0.402,0.994c0.032,2.398,0.004,4.799,0.022,7.197
	c0.006,0.696-0.166,1.178-0.841,1.553c-1.106,0.619-2.1,1.441-3.215,2.043c-0.463,0.25-1.215,0.371-1.655,0.166
	c-1.032-0.482-1.953-1.201-2.923-1.819c-2.809-1.789-5.614-3.584-8.429-5.362c-2.244-1.418-4.5-2.816-6.755-4.218
	c-0.244-0.151-0.519-0.254-0.78-0.379c-0.091,0.282-0.257,0.563-0.262,0.849c-0.038,2.276,0.014,4.557-0.089,6.832
	c-0.051,1.121,0.375,1.811,1.298,2.321c1.168,0.646,2.352,1.272,3.472,1.995c2.264,1.459,4.472,3.005,6.736,4.465
	c2.26,1.456,4.606,2.781,6.82,4.301c1.094,0.752,2.147,0.713,3.127,0.176c1.873-1.027,3.644-2.246,5.465-3.369
	c3.337-2.059,6.656-4.146,10.031-6.143c2.94-1.738,2.969-1.689,2.975-5.148c0-0.08-0.013-0.162,0.003-0.238
	c0.385-1.939-0.609-2.941-2.242-3.803C59.121,48.757,57.346,47.428,55.498,46.23z"/>
<path fill="#001D62" d="M30.881,25.509c-0.637,0.535-1.226,1.146-1.921,1.589c-1.415,0.9-2.888,1.708-4.337,2.555
	c0.057-0.287,0.014-0.721,0.187-0.838c1.58-1.07,3.182-2.11,4.816-3.096C29.963,25.515,30.459,25.572,30.881,25.509z"/>
<path fill="#001B60" d="M25.381,58.835c1.341,0.81,2.682,1.618,4.022,2.429c-0.161,0.76-0.518,0.451-0.916,0.19
	c-1.175-0.769-2.366-1.515-3.673-2.347C25.071,58.982,25.226,58.909,25.381,58.835z"/>
<path fill="#001D62" d="M32.058,25.069c-0.333,0.088-0.665,0.176-0.998,0.264C31.227,24.621,31.597,24.675,32.058,25.069z"/>
<path fill="#F7FAFB" d="M55.498,46.23c1.848,1.195,3.623,2.525,5.563,3.547c1.633,0.861,2.627,1.863,2.242,3.804
	c-0.015,0.077-0.002,0.159-0.002,0.239c-0.006,3.457-0.033,3.408-2.975,5.148c-3.375,1.994-6.694,4.084-10.031,6.143
	c-1.822,1.123-3.592,2.341-5.465,3.369c-0.979,0.537-2.033,0.576-3.127-0.176c-2.214-1.521-4.561-2.846-6.82-4.302
	c-2.264-1.46-4.472-3.006-6.736-4.465c-1.12-0.724-2.304-1.349-3.472-1.995c-0.924-0.512-1.349-1.199-1.298-2.322
	c0.103-2.273,0.051-4.555,0.089-6.832c0.005-0.283,0.171-0.564,0.262-0.848c0.261,0.125,0.536,0.229,0.78,0.379
	c2.255,1.4,4.511,2.801,6.755,4.219c2.815,1.777,5.621,3.572,8.429,5.361c0.97,0.618,1.891,1.337,2.923,1.818
	c0.44,0.207,1.194,0.084,1.657-0.164c1.113-0.602,2.106-1.426,3.215-2.043c0.674-0.377,0.846-0.856,0.84-1.555
	c-0.02-2.397,0.01-4.798-0.023-7.195c-0.004-0.35-0.156-0.869-0.402-0.994c-0.248-0.125-0.737,0.068-1.047,0.251
	c-0.951,0.563-1.838,1.239-2.801,1.778c-1.227,0.686-2.014-0.398-2.87-0.91c-3.774-2.252-7.513-4.563-11.243-6.887
	c-1.98-1.234-3.941-2.502-5.85-3.843c-0.379-0.266-0.573-0.912-0.678-1.418c-0.11-0.536-0.004-1.114-0.006-1.673
	c-0.01-3.857,0.032-3.777,3.421-5.63c2.457-1.342,4.777-2.932,7.158-4.413c2.658-1.653,5.268-3.392,7.99-4.929
	c1.519-0.858,2.906,0.043,4.212,0.876c4.481,2.857,8.976,5.696,13.465,8.542c0.938,0.595,1.931,1.124,2.797,1.812
	c0.41,0.326,0.807,0.947,0.82,1.445c0.076,2.757,0.039,5.517,0.027,8.275c-0.002,0.25-0.09,0.501-0.154,0.833
	c-2.27-1.441-4.428-2.823-6.598-4.186c-2.818-1.77-5.648-3.517-8.467-5.287c-1.074-0.674-2.135-1.371-3.184-2.085
	c-1.088-0.741-2.017-0.681-3.042,0.14c-0.832,0.666-1.779,1.195-2.574,1.9c-0.361,0.32-0.66,0.912-0.674,1.39
	c-0.07,2.357-0.048,4.717-0.034,7.076c0.007,1.314,0.394,1.53,1.485,0.852c0.81-0.502,1.551-1.151,2.415-1.514
	c0.597-0.25,1.508-0.398,2.012-0.116c2.278,1.276,4.451,2.74,6.687,4.097c1.417,0.86,2.877,1.653,4.317,2.478l0.047-0.039
	L55.498,46.23z"/>
</svg>
